<?xml version="1.0" encoding="UTF-8"?>
<svg xmlns="http://www.w3.org/2000/svg" xmlns:svg="http://www.w3.org/2000/svg" xmlns:sodipodi="http://sodipodi.sourceforge.net/DTD/sodipodi-0.dtd" xmlns:rdf="http://www.w3.org/1999/02/22-rdf-syntax-ns#" xmlns:inkscape="http://www.inkscape.org/namespaces/inkscape" xmlns:dc="http://purl.org/dc/elements/1.1/" xmlns:cc="http://creativecommons.org/ns#" version="1.1" viewBox="0 0 30 30">
  <!-- Generator: Adobe Illustrator 29.8.2, SVG Export Plug-In . SVG Version: 2.1.1 Build 3)  -->
  <defs>
    <style>
      .st0 {
        fill: #c7af86;
      }
    </style>
  </defs>
  <g id="svg1323" inkscape:version="1.3.1 (91b66b0, 2023-11-16)" sodipodi:docname="logo.svg">
    <sodipodi:namedview id="base" bordercolor="#666666" borderopacity="1.0" inkscape:current-layer="layer1" inkscape:cx="-12.919618" inkscape:cy="-28.273368" inkscape:deskcolor="#d1d1d1" inkscape:document-rotation="0" inkscape:document-units="px" inkscape:pagecheckerboard="0" inkscape:pageopacity="0.0" inkscape:pageshadow="2" inkscape:showpageshadow="2" inkscape:window-height="926" inkscape:window-maximized="0" inkscape:window-width="1424" inkscape:window-x="0" inkscape:window-y="25" inkscape:zoom="2.6703575" pagecolor="#ffffff" showgrid="false" units="px"/>
    <g>
      <path class="st0" d="M13.71,29.86s.08.06.05.08c-4.36.03-8.71.08-13.07.05.73-1.95,2.33-3.76,4.53-3.9v-2.48c.73.14.69-.52,1.01-.97.93-1.26,2.95-1.12,3.64.3.18.39.07.79.68.67.23-3.03,3.51-4.95,6.11-3.03.96.71,1.49,1.85,1.64,3.02l.42-.02c.35-1.58,2.18-2.4,3.5-1.34.27.22.76.95.76,1.29v6.4h-8.01v-6.72c0-.15-.3-.4-.46-.43-.33-.07-.8.2-.8.54v6.53ZM7.44,27.41l.92-.02.08-.06v-2.74c0-.51-1-.5-1-.11v2.93ZM20.35,24.59v2.74c.29.14.68-.04,1,.08v-2.93s-.2-.24-.26-.26c-.31-.09-.68.02-.74.36Z"/>
      <path class="st0" d="M26.1,20.4h-1.42v.53h2.53v.53l-.4.05-.02.42c.61.2,1.07-.24,1.34.54.15.44.17,1.1.43,1.47.11.16.34.23.29.48h-.79v3.56l1.26,1.98h-5.8v-6.32c.33.01.9.03.95-.39.05-.36.04-1.85-.03-2.19-.03-.14-.13-.34-.24-.45-.08-.08-.47-.29-.55-.29h-1.19v-1.87s-.65-.43-.24-.72l4.11-.04c.47.33-.23.71-.23.76,0,0,0,1.98,0,1.98ZM26.1,26.98v-2.13c0-.31-.5-.66-.81-.65-.41,0-.82.47-.82.87v1.84l.08.08h1.55Z"/>
      <path class="st0" d="M18.82,10.73v.95h-8.91v-.9c0-1.69,1.77-2.81,2.77-3.93.53-.59,1-1.25,1.35-1.96-.2-.11-.33-.33-.33-.58,0-.27.16-.5.38-.61,0-.72.01-1.46.02-2.18-.34,0-.68,0-1.02,0v-.53h1V0h.58v1h1v.53c-.34,0-.68,0-1.01,0,0,.73,0,1.45.01,2.18.23.11.38.34.38.61,0,.24-.13.45-.32.57.08.34,1.02,1.58,1.23,1.81.98,1.1,2.87,2.4,2.87,4.03Z"/>
      <path class="st0" d="M26.34,16.92v.44h-4.12v-.41c0-.78.82-1.3,1.28-1.82.25-.27.46-.58.62-.91-.09-.05-.15-.15-.15-.27,0-.12.07-.23.18-.28,0-.33,0-.68,0-1.01h-.47v-.25h.47v-.47h.27v.47h.47v.25c-.16,0-.32,0-.47,0,0,.34,0,.67,0,1.01.11.05.18.16.18.28,0,.11-.06.21-.14.26.04.16.47.73.57.84.45.51,1.33,1.11,1.33,1.87Z"/>
      <path class="st0" d="M19.19,12.28c.18.28-.37.72-.37.76v4.56h-8.85v-4.53s-.36-.14-.41-.41c-.04-.16.08-.38.23-.38h9.41ZM11.81,16.82v-2.77c0-.22-.63-.23-.63.05v2.71h.63ZM14.71,16.82v-2.61c0-.45-.74-.39-.74-.05v2.66s.74,0,.74,0ZM17.61,16.82v-2.77c0-.2-.63-.25-.63.05v2.71h.63Z"/>
      <path class="st0" d="M19.03,18.08v1.13l2.92,1.56c.32.16,1.98-.16,1.98.34v1.98l-.53-.03c-.52-1.31-1.57-1.91-2.98-1.77-.59.06-1.22.49-1.61.92-.06.07-.18.37-.26.29-.34-1.44-1.66-2.76-3.11-3.08-.58-.13-1.53-.13-2.11,0-1.49.34-2.67,1.67-3.14,3.08-1.12-1.9-4.12-1.54-4.77.58h-.79v-2.16l1.86.04,3.2-1.65v-1.24s9.33,0,9.33,0Z"/>
    </g>
  </g>
</svg>