<?xml version="1.0" encoding="UTF-8"?>
<svg id="_Слой_1" data-name="Слой_1" xmlns="http://www.w3.org/2000/svg" xmlns:svg="http://www.w3.org/2000/svg" xmlns:sodipodi="http://sodipodi.sourceforge.net/DTD/sodipodi-0.dtd" xmlns:rdf="http://www.w3.org/1999/02/22-rdf-syntax-ns#" xmlns:inkscape="http://www.inkscape.org/namespaces/inkscape" xmlns:dc="http://purl.org/dc/elements/1.1/" xmlns:cc="http://creativecommons.org/ns#" version="1.1" viewBox="0 0 30 30">
  <!-- Generator: Adobe Illustrator 29.8.2, SVG Export Plug-In . SVG Version: 2.1.1 Build 3)  -->
  <defs>
    <style>
      .st0 {
        fill: #fff;
      }
    </style>
  </defs>
  <g id="svg1323" inkscape:version="1.3.1 (91b66b0, 2023-11-16)" sodipodi:docname="logo-theme-dark.svg">
    <sodipodi:namedview id="base" bordercolor="#666666" borderopacity="1.0" inkscape:current-layer="layer1" inkscape:cx="-59.971745" inkscape:cy="6.3799729" inkscape:deskcolor="#d1d1d1" inkscape:document-rotation="0" inkscape:document-units="px" inkscape:pagecheckerboard="0" inkscape:pageopacity="0.0" inkscape:pageshadow="2" inkscape:showpageshadow="2" inkscape:window-height="926" inkscape:window-maximized="0" inkscape:window-width="1424" inkscape:window-x="0" inkscape:window-y="25" inkscape:zoom="2.7429584" pagecolor="#ffffff" showgrid="false" units="px"/>
    <path class="st0" d="M13.72,29.86s.08.06.05.08c-4.34.03-8.67.08-13.01.05.73-1.94,2.32-3.75,4.51-3.88v-2.47c.73.14.68-.52,1.01-.96.92-1.26,2.94-1.11,3.62.3.18.38.07.78.67.66.23-3.02,3.5-4.92,6.08-3.01.95.71,1.48,1.85,1.64,3.01l.42-.02c.35-1.57,2.17-2.39,3.48-1.34.27.21.76.95.76,1.29v6.38h-7.97v-6.69c0-.15-.3-.4-.46-.43-.32-.07-.8.2-.8.54v6.5h0ZM7.47,27.42l.92-.02.08-.06v-2.73c0-.5-1-.5-1-.1,0,0,0,2.91,0,2.91ZM20.33,24.62v2.73c.29.14.67-.04,1,.08v-2.91s-.2-.24-.26-.26c-.31-.09-.67.02-.73.36h-.01Z"/>
    <path class="st0" d="M26.05,20.44h-1.42v.52h2.52v.52l-.4.05-.02.42c.6.2,1.07-.24,1.33.53.15.44.17,1.09.42,1.46.11.16.34.23.28.48h-.79v3.54l1.26,1.97h-5.77v-6.3c.32.01.89.03.95-.39.05-.36.04-1.84-.03-2.18-.03-.14-.13-.34-.24-.45-.08-.08-.47-.29-.55-.29h-1.18v-1.86s-.64-.42-.24-.71l4.09-.04c.46.33-.23.7-.23.75v1.97h.02ZM26.05,27v-2.13c0-.31-.5-.66-.81-.65-.41,0-.82.47-.82.86v1.84l.08.08h1.55Z"/>
    <path class="st0" d="M18.81,10.82v.94h-8.87v-.89c0-1.68,1.76-2.8,2.75-3.91.53-.59.99-1.24,1.34-1.95-.2-.11-.33-.33-.33-.58,0-.27.16-.49.38-.6,0-.72.01-1.45.02-2.17h-1.01v-.52h1V.14h.58v1h1v.52h-1.01c0,.73,0,1.44.01,2.17.23.1.38.34.38.6,0,.24-.13.45-.31.57.08.34,1.02,1.57,1.22,1.8.97,1.1,2.86,2.39,2.86,4.01h-.01Z"/>
    <path class="st0" d="M26.29,16.98v.44h-4.11v-.41c0-.78.81-1.3,1.28-1.81.24-.27.46-.57.62-.91-.09-.05-.15-.15-.15-.27s.07-.23.17-.28v-1.01h-.47v-.24h.46v-.46h.27v.46h.46v.24h-.47v1.01c.1.05.18.16.18.28,0,.11-.06.21-.14.26.03.16.47.73.56.84.45.51,1.32,1.1,1.32,1.86h.02Z"/>
    <path class="st0" d="M19.17,12.37c.17.28-.37.72-.37.76v4.54h-8.82v-4.51s-.35-.14-.41-.41c-.03-.16.08-.38.23-.38h9.37ZM11.83,16.88v-2.75c0-.21-.63-.23-.63.05v2.7h.63ZM14.71,16.88v-2.6c0-.45-.73-.38-.73-.05v2.65h.73ZM17.6,16.88v-2.75c0-.2-.63-.25-.63.05v2.7h.63Z"/>
    <path class="st0" d="M19.02,18.14v1.13l2.91,1.55c.32.16,1.97-.16,1.97.34v1.97l-.52-.03c-.52-1.31-1.56-1.9-2.96-1.76-.59.06-1.22.49-1.6.92-.06.07-.18.37-.26.29-.34-1.43-1.66-2.75-3.1-3.07-.58-.13-1.53-.13-2.1,0-1.48.34-2.65,1.67-3.12,3.07-1.12-1.89-4.1-1.53-4.75.58h-.79v-2.15l1.85.04,3.19-1.64v-1.23h9.29,0Z"/>
  </g>
</svg>